# xmcd
#
# Track frame offsets: 
#        150
#        11662
#        24970
#        37024
#        45939
#        57568
#        69544
#        81210
#        92558
#        104797
#        116074
#        125916
#        137250
#        147434
#        161225
#        172810
#        185446
#        196930
#        207827
#        219649
#        230822
#        244224
#        255615
#        268634
#        280531
#        293855
#        305022
#
# Disc length: 4229 seconds
#
# Revision: 0
# Processed by: cddbd v1.5.1PL0 Copyright (c) Steve Scherf et al.
# Submitted via: ExactAudioCopy v0.95a4
#
DISCID=9710831b
DTITLE=Various Artist - Movin' On
DYEAR=1900
DGENRE=Country
TTITLE0=Ford Lewis With Joe Bean And His San Antonians - I'm Movin' On
TTITLE1=Loy Gordon And His Plesant Valley Boys - Drinkin' Wine Spo-Dee
TTITLE1=O-Dee
TTITLE2=Enez Bienek And The Texas Tornadoes - I'm Hungry Hungry For Yo
TTITLE2=ur Love
TTITLE3=Curt Hinson - Your Old Love Is Haunting You Still
TTITLE4=Harmie Smith - I'll Not Be Around
TTITLE5=Pete Graves And His Bunkhouse Buddies - Bunkhouse Boogie
TTITLE6=Texas Slim Owenby - You Got To Eat Sometime
TTITLE7=Texas Slim Owenby - Look What You've Done And Done To Me
TTITLE8=Raymond Webb And The Radio Center Boys - Hot Water Blues
TTITLE9=Henry Ford - No More Money No More Honey
TTITLE10=Raymond Webb And The Radio Center Boys - Bucket Special
TTITLE11=Tiny Adams And His Western Serenaders - Easy Goin'
TTITLE12=Jimmie Ballard - Chicken Plucker
TTITLE13=Deon Lay - Let Your Daddy Know
TTITLE14=Western Playboys - Honkey-Tonkin'
TTITLE15=Ray Smith - Lonesome Truck Driver's Blues
TTITLE16=Bill Tutt - Sixty Days
TTITLE17=Art Gunn And His Arizona Playboys - Barn Dance Boogie
TTITLE18=Country Cowboys - Mississippi Boogie
TTITLE19=Wally Fowler - Mountain Boogie
TTITLE20=Claude Casey - Juke Box Gal
TTITLE21=Drifting Johnny Smith With Billy Moses And The Rhythm Rangers
TTITLE21=Service Station Blues
TTITLE22=Preston Ward - How Can I Help Lovin' You
TTITLE23=Cousin Wilbur And Blondie Brooks - Blues Stay Away From Me
TTITLE24=Larry Dean And His Virginia Playboys - My Red Head
TTITLE25=Lee And Terry Edmond With The Country Folks - I'll Take The B
TTITLE25=lame
TTITLE26=Stoney Rigsby - I Need Some Lovin' Quick
EXTD=
EXTT0=
EXTT1=
EXTT2=
EXTT3=
EXTT4=
EXTT5=
EXTT6=
EXTT7=
EXTT8=
EXTT9=
EXTT10=
EXTT11=
EXTT12=
EXTT13=
EXTT14=
EXTT15=
EXTT16=
EXTT17=
EXTT18=
EXTT19=
EXTT20=
EXTT21=
EXTT22=
EXTT23=
EXTT24=
EXTT25=
EXTT26=
PLAYORDER=
